<svg display="none" xmlns="http://www.w3.org/2000/svg">
   <symbol id="icon-trash" viewBox="0 0 24 24">
      <path d="M10 11V17M14 11V17M4 7H20M19 7L18.133 19.142C18.0971 19.6466 17.8713 20.1188 17.5011 20.4636C17.1309 20.8083 16.6439 21 16.138 21H7.862C7.35614 21 6.86907 20.8083 6.49889 20.4636C6.1287 20.1188 5.90292 19.6466 5.867 19.142L5 7H19ZM15 7V4C15 3.73478 14.8946 3.48043 14.7071 3.29289C14.5196 3.10536 14.2652 3 14 3H10C9.73478 3 9.48043 3.10536 9.29289 3.29289C9.10536 3.48043 9 3.73478 9 4V7H15Z"  fill="none" stroke-width="2" stroke-linecap="round" stroke-linejoin="round"/>
    </symbol>
    <symbol id="icon-pencil" viewBox="0 0 24 24">
      <path d="M15.232 5.23202L18.768 8.76802M16.732 3.73202C17.2009 3.26312 17.8369 2.99969 18.5 2.99969C19.1631 2.99969 19.7991 3.26312 20.268 3.73202C20.7369 4.20093 21.0003 4.8369 21.0003 5.50002C21.0003 6.16315 20.7369 6.79912 20.268 7.26802L6.5 21.036H3V17.464L16.732 3.73202Z" fill="none" stroke-width="2" stroke-linecap="round" stroke-linejoin="round"/>
    </symbol>
    <symbol id="icon-volume-off" viewBox="0 0 24 24">
      <path d="M4 15H5.586L10.293 19.707C10.923 20.337 12 19.891 12 19V5.00001C12 4.10901 10.923 3.66301 10.293 4.29301L5.586 9.00001H4C3.73478 9.00001 3.48043 9.10536 3.29289 9.2929C3.10536 9.48044 3 9.73479 3 10V14C3 14.2652 3.10536 14.5196 3.29289 14.7071C3.48043 14.8946 3.73478 15 4 15Z"  fill="none" stroke-width="2" stroke-linecap="round" stroke-linejoin="round"/>
      <path d="M19 12L21 14M17 14L19 12L17 14ZM19 12L21 10L19 12ZM19 12L17 10L19 12Z" />
    </symbol>
    <symbol id="icon-volume-up" viewBox="0 0 24 24">
      <path d="M15.536 8.46401C16.0004 8.92832 16.3688 9.47957 16.6202 10.0863C16.8716 10.693 17.0009 11.3433 17.0009 12C17.0009 12.6567 16.8716 13.307 16.6202 13.9137C16.3688 14.5204 16.0004 15.0717 15.536 15.536M18.364 5.63601C19.1997 6.47174 19.8627 7.46389 20.315 8.55583C20.7673 9.64777 21.0001 10.8181 21.0001 12C21.0001 13.1819 20.7673 14.3522 20.315 15.4442C19.8627 16.5361 19.1997 17.5283 18.364 18.364M5.586 15H4C3.73478 15 3.48043 14.8946 3.29289 14.7071C3.10536 14.5196 3 14.2652 3 14V10C3 9.73479 3.10536 9.48044 3.29289 9.2929C3.48043 9.10536 3.73478 9.00001 4 9.00001H5.586L10.293 4.29301C10.923 3.66301 12 4.10901 12 5.00001V19C12 19.891 10.923 20.337 10.293 19.707L5.586 15Z"  fill="none" stroke-width="2" stroke-linecap="round" stroke-linejoin="round"/>
    </symbol>
</svg>
